<svg width="16" height="16" viewBox="0 0 16 16" fill="none" xmlns="http://www.w3.org/2000/svg">
<path d="M2.146 2.854C2.09951 2.80751 2.06263 2.75232 2.03748 2.69158C2.01232 2.63084 1.99937 2.56574 1.99937 2.5C1.99937 2.43426 2.01232 2.36916 2.03748 2.30842C2.06263 2.24768 2.09951 2.19249 2.146 2.146C2.19249 2.09951 2.24768 2.06264 2.30841 2.03748C2.36915 2.01232 2.43425 1.99937 2.5 1.99937C2.56574 1.99937 2.63084 2.01232 2.69158 2.03748C2.75232 2.06264 2.80751 2.09951 2.854 2.146L8 7.293L13.146 2.146C13.1925 2.09951 13.2477 2.06264 13.3084 2.03748C13.3692 2.01232 13.4343 1.99937 13.5 1.99937C13.5657 1.99937 13.6308 2.01232 13.6916 2.03748C13.7523 2.06264 13.8075 2.09951 13.854 2.146C13.9005 2.19249 13.9374 2.24768 13.9625 2.30842C13.9877 2.36916 14.0006 2.43426 14.0006 2.5C14.0006 2.56574 13.9877 2.63084 13.9625 2.69158C13.9374 2.75232 13.9005 2.80751 13.854 2.854L8.707 8L13.854 13.146C13.9005 13.1925 13.9374 13.2477 13.9625 13.3084C13.9877 13.3692 14.0006 13.4343 14.0006 13.5C14.0006 13.5657 13.9877 13.6308 13.9625 13.6916C13.9374 13.7523 13.9005 13.8075 13.854 13.854C13.8075 13.9005 13.7523 13.9374 13.6916 13.9625C13.6308 13.9877 13.5657 14.0006 13.5 14.0006C13.4343 14.0006 13.3692 13.9877 13.3084 13.9625C13.2477 13.9374 13.1925 13.9005 13.146 13.854L8 8.707L2.854 13.854C2.80751 13.9005 2.75232 13.9374 2.69158 13.9625C2.63084 13.9877 2.56574 14.0006 2.5 14.0006C2.43425 14.0006 2.36915 13.9877 2.30841 13.9625C2.24768 13.9374 2.19249 13.9005 2.146 13.854C2.09951 13.8075 2.06263 13.7523 2.03748 13.6916C2.01232 13.6308 1.99937 13.5657 1.99937 13.5C1.99937 13.4343 2.01232 13.3692 2.03748 13.3084C2.06263 13.2477 2.09951 13.1925 2.146 13.146L7.293 8L2.146 2.854Z" fill="white"/>
</svg>
