<svg width="16" height="16" viewBox="0 0 16 16" fill="none" xmlns="http://www.w3.org/2000/svg">
<path d="M6.5 1H9.5C9.63261 1 9.75979 1.05268 9.85355 1.14645C9.94732 1.24021 10 1.36739 10 1.5V2.5H6V1.5C6 1.36739 6.05268 1.24021 6.14645 1.14645C6.24021 1.05268 6.36739 1 6.5 1V1ZM11 2.5V1.5C11 1.10218 10.842 0.720644 10.5607 0.43934C10.2794 0.158035 9.89782 0 9.5 0L6.5 0C6.10218 0 5.72064 0.158035 5.43934 0.43934C5.15804 0.720644 5 1.10218 5 1.5V2.5H2.506C2.50267 2.49997 2.49933 2.49997 2.496 2.5H1.5C1.36739 2.5 1.24021 2.55268 1.14645 2.64645C1.05268 2.74021 1 2.86739 1 3C1 3.13261 1.05268 3.25979 1.14645 3.35355C1.24021 3.44732 1.36739 3.5 1.5 3.5H2.038L2.891 14.16C2.93122 14.6612 3.15875 15.1289 3.52827 15.4698C3.8978 15.8108 4.38219 16.0001 4.885 16H11.115C11.6178 16.0001 12.1022 15.8108 12.4717 15.4698C12.8412 15.1289 13.0688 14.6612 13.109 14.16L13.962 3.5H14.5C14.6326 3.5 14.7598 3.44732 14.8536 3.35355C14.9473 3.25979 15 3.13261 15 3C15 2.86739 14.9473 2.74021 14.8536 2.64645C14.7598 2.55268 14.6326 2.5 14.5 2.5H13.505C13.5017 2.49997 13.4983 2.49997 13.495 2.5H11ZM12.958 3.5L12.112 14.08C12.0919 14.3306 11.9781 14.5644 11.7934 14.7349C11.6086 14.9054 11.3664 15.0001 11.115 15H4.885C4.6336 15.0001 4.3914 14.9054 4.20664 14.7349C4.02188 14.5644 3.90811 14.3306 3.888 14.08L3.042 3.5H12.958ZM5.471 4.5C5.60333 4.49235 5.73329 4.53756 5.8323 4.6257C5.93131 4.71383 5.99127 4.83767 5.999 4.97L6.499 13.47C6.50425 13.6008 6.45802 13.7284 6.37022 13.8255C6.28242 13.9225 6.16006 13.9813 6.02941 13.9892C5.89876 13.997 5.77024 13.9533 5.67144 13.8675C5.57265 13.7816 5.51145 13.6605 5.501 13.53L5 5.03C4.99594 4.96431 5.00489 4.89847 5.02633 4.83625C5.04777 4.77403 5.08129 4.71665 5.12495 4.66741C5.16862 4.61817 5.22158 4.57804 5.28079 4.54931C5.34 4.52058 5.4043 4.50382 5.47 4.5H5.471ZM10.529 4.5C10.5947 4.50382 10.659 4.52058 10.7182 4.54931C10.7774 4.57804 10.8304 4.61817 10.874 4.66741C10.9177 4.71665 10.9512 4.77403 10.9727 4.83625C10.9941 4.89847 11.0031 4.96431 10.999 5.03L10.499 13.53C10.4963 13.5964 10.4804 13.6617 10.4522 13.7219C10.424 13.7821 10.3841 13.8361 10.3348 13.8807C10.2855 13.9254 10.2278 13.9597 10.165 13.9817C10.1023 14.0037 10.0358 14.013 9.9694 14.009C9.90302 14.005 9.8381 13.9878 9.77845 13.9585C9.7188 13.9291 9.6656 13.8881 9.62199 13.8379C9.57837 13.7877 9.5452 13.7293 9.52443 13.6661C9.50365 13.603 9.49569 13.5363 9.501 13.47L10.001 4.97C10.0087 4.83767 10.0687 4.71383 10.1677 4.6257C10.2667 4.53756 10.3967 4.49235 10.529 4.5V4.5ZM8 4.5C8.13261 4.5 8.25979 4.55268 8.35355 4.64645C8.44732 4.74021 8.5 4.86739 8.5 5V13.5C8.5 13.6326 8.44732 13.7598 8.35355 13.8536C8.25979 13.9473 8.13261 14 8 14C7.86739 14 7.74021 13.9473 7.64645 13.8536C7.55268 13.7598 7.5 13.6326 7.5 13.5V5C7.5 4.86739 7.55268 4.74021 7.64645 4.64645C7.74021 4.55268 7.86739 4.5 8 4.5V4.5Z" fill="white"/>
</svg>
